<?xml version="1.0" encoding="UTF-8"?>
<svg 
  xmlns="http://www.w3.org/2000/svg" 
  viewBox="0 0 24 24" 
  role="img" 
  aria-label="Task Management System Logo"
  fill="currentColor"
  width="100%"
  height="100%"
  style="min-width: 24px; min-height: 24px;"
>
  <!-- Base circle representing task completion -->
  <path 
    d="M12 2C6.48 2 2 6.48 2 12s4.48 10 10 10 10-4.48 10-10S17.52 2 12 2zm0 2c4.41 0 8 3.59 8 8s-3.59 8-8 8-8-3.59-8-8 3.59-8 8-8z"
    fill-rule="evenodd"
    clip-rule="evenodd"
  />
  
  <!-- Checkmark representing task completion -->
  <path 
    d="M10 14.2l-2.2-2.2-1.4 1.4L10 17l8-8-1.4-1.4z"
    fill-rule="nonzero"
  />
  
  <!-- Dynamic accent line for visual interest -->
  <path 
    d="M12 7v2m0 6v2"
    stroke="currentColor"
    stroke-width="2"
    stroke-linecap="round"
  />
</svg>